<?xml version="1.0" encoding="UTF-8" standalone="no"?>
<svg
   width="16"
   height="16"
   xml:space="preserve"
   overflow="hidden"
   version="1.1"
   id="svg61"
   sodipodi:docname="Helico_logo_squared.svg"
   inkscape:version="1.4 (86a8ad7, 2024-10-11)"
   xmlns:inkscape="http://www.inkscape.org/namespaces/inkscape"
   xmlns:sodipodi="http://sodipodi.sourceforge.net/DTD/sodipodi-0.dtd"
   xmlns="http://www.w3.org/2000/svg"
   xmlns:svg="http://www.w3.org/2000/svg"><sodipodi:namedview
     id="namedview61"
     pagecolor="#ffffff"
     bordercolor="#000000"
     borderopacity="0.25"
     inkscape:showpageshadow="2"
     inkscape:pageopacity="0.0"
     inkscape:pagecheckerboard="0"
     inkscape:deskcolor="#d1d1d1"
     inkscape:zoom="53.3"
     inkscape:cx="10.450281"
     inkscape:cy="4.1463415"
     inkscape:window-width="3840"
     inkscape:window-height="2036"
     inkscape:window-x="-12"
     inkscape:window-y="-12"
     inkscape:window-maximized="1"
     inkscape:current-layer="g61" /><defs
     id="defs1"><clipPath
       id="clip0"><rect
         x="1122"
         y="20"
         width="140"
         height="66"
         id="rect1" /></clipPath></defs><g
     clip-path="url(#clip0)"
     transform="translate(-1164.5469,-19.998803)"
     id="g61"><g
       id="g1"
       transform="matrix(0.22202843,0,0,0.22202843,899.07583,16.293882)"><path
         d="m -290.818,422.748 c 0.197,0.148 0.395,0.294 0.597,0.436 0.177,0.125 0.357,0.249 0.54,0.37 l -2.273,5.192 -1.744,-0.764 2.439,-5.573 c 0.145,0.114 0.293,0.227 0.441,0.339 z"
         fill="#37b3ba"
         transform="matrix(1,0,0,1.00359,1499.73,-352.868)"
         id="path1" /><path
         d="m -253.89,411.262 c 0.092,-0.274 0.179,-0.55 0.26,-0.827 0.081,-0.278 0.157,-0.553 0.224,-0.821 l 15.173,-4.452 0.536,1.827 -16.377,4.806 c 0.062,-0.171 0.123,-0.348 0.184,-0.533 z"
         fill="#37b3ba"
         transform="matrix(1,0,0,1.00359,1499.73,-352.868)"
         id="path2" /><path
         d="m -253.121,408.35 c 0.056,-0.282 0.109,-0.579 0.157,-0.883 0.05,-0.314 0.09,-0.604 0.123,-0.88 l 14.243,-7.056 0.847,1.707 -15.487,7.672 c 0.041,-0.183 0.08,-0.371 0.117,-0.56 z"
         fill="#37b3ba"
         transform="matrix(1,0,0,1.00359,1499.73,-352.868)"
         id="path3" /><path
         d="m -252.724,402.045 c -0.022,-0.326 -0.051,-0.648 -0.085,-0.955 -0.034,-0.31 -0.076,-0.63 -0.125,-0.955 l 10.732,-11.251 1.379,1.315 -11.868,12.442 c -0.009,-0.2 -0.02,-0.4 -0.033,-0.596 z"
         fill="#37b3ba"
         transform="matrix(1,0,0,1.00359,1499.73,-352.868)"
         id="path4" /><path
         d="m -254.23,395.217 c -0.122,-0.32 -0.25,-0.634 -0.378,-0.933 -0.133,-0.306 -0.275,-0.617 -0.423,-0.924 l 5.801,-13.249 1.745,0.764 -6.531,14.918 c -0.069,-0.192 -0.14,-0.385 -0.214,-0.576 z"
         fill="#37b3ba"
         transform="matrix(1,0,0,1.00359,1499.73,-352.868)"
         id="path5" /><path
         d="m -279.751,380.113 c -0.278,0.039 -0.572,0.085 -0.898,0.142 -0.302,0.054 -0.599,0.112 -0.885,0.174 l -4.603,-4.391 1.314,-1.379 5.644,5.383 c -0.192,0.022 -0.384,0.045 -0.572,0.071 z"
         fill="#37b3ba"
         transform="matrix(1,0,0,1.00359,1499.73,-352.868)"
         id="path6" /><path
         d="m -284.855,381.404 c -0.258,0.098 -0.525,0.205 -0.814,0.326 -0.272,0.113 -0.538,0.23 -0.792,0.347 l -4.37,-2.909 1.055,-1.585 5.454,3.629 c -0.181,0.062 -0.359,0.128 -0.533,0.192 z"
         fill="#37b3ba"
         transform="matrix(1,0,0,1.00359,1499.73,-352.868)"
         id="path7" /><path
         d="m -289.595,383.823 c -0.236,0.155 -0.47,0.316 -0.701,0.481 -0.221,0.157 -0.445,0.322 -0.666,0.491 l -3.948,-1.728 0.764,-1.746 5.021,2.199 c -0.162,0.102 -0.319,0.202 -0.47,0.303 z"
         fill="#37b3ba"
         transform="matrix(1,0,0,1.00359,1499.73,-352.868)"
         id="path8" /><path
         d="m -293.701,387.247 c -0.19,0.2 -0.379,0.4 -0.563,0.606 -0.166,0.186 -0.336,0.384 -0.518,0.602 l -3.467,-0.841 0.449,-1.852 4.487,1.089 c -0.129,0.128 -0.258,0.26 -0.388,0.396 z"
         fill="#37b3ba"
         transform="matrix(1,0,0,1.00359,1499.73,-352.868)"
         id="path9" /><path
         d="m -294.173,419.675 c 0.165,0.184 0.334,0.365 0.505,0.543 0.152,0.159 0.307,0.315 0.464,0.47 l -2.649,3.978 -1.585,-1.054 2.897,-4.353 c 0.121,0.14 0.243,0.279 0.368,0.416 z"
         fill="#37b3ba"
         transform="matrix(1,0,0,1.00359,1499.73,-352.868)"
         id="path10" /><path
         d="m -287.101,425.05 c 0.22,0.109 0.442,0.215 0.666,0.318 0.197,0.09 0.395,0.178 0.595,0.264 l -1.568,6.454 -1.851,-0.449 1.661,-6.842 c 0.174,0.092 0.337,0.176 0.497,0.255 z"
         fill="#37b3ba"
         transform="matrix(1,0,0,1.00359,1499.73,-352.868)"
         id="path11" /><path
         d="m -268.495,426.162 c 0.236,-0.084 0.47,-0.173 0.702,-0.264 0.211,-0.083 0.42,-0.168 0.628,-0.255 l 6.951,9.444 -1.534,1.129 -7.269,-9.876 c 0.177,-0.058 0.351,-0.118 0.522,-0.178 z"
         fill="#37b3ba"
         transform="matrix(1,0,0,1.00359,1499.73,-352.868)"
         id="path12" /><path
         d="m -265.438,424.823 c 0.223,-0.118 0.444,-0.24 0.664,-0.363 0.211,-0.12 0.407,-0.235 0.597,-0.349 l 9.129,8.708 -1.314,1.378 -9.568,-9.125 c 0.173,-0.084 0.335,-0.167 0.492,-0.249 z"
         fill="#37b3ba"
         transform="matrix(1,0,0,1.00359,1499.73,-352.868)"
         id="path13" /><path
         d="m -247.039,427.535 -13.662,-5.982 c 0.143,-0.126 0.278,-0.247 0.408,-0.368 0.191,-0.176 0.377,-0.358 0.563,-0.541 0.187,-0.185 0.356,-0.356 0.512,-0.521 l 12.943,5.667 z"
         fill="#37b3ba"
         transform="matrix(1,0,0,1.00359,1499.73,-352.868)"
         id="path14" /><path
         d="m -258.209,418.991 c 0.17,-0.205 0.338,-0.411 0.502,-0.62 0.152,-0.195 0.306,-0.397 0.456,-0.604 l 14.316,3.476 -0.45,1.852 -15.182,-3.686 c 0.121,-0.138 0.24,-0.277 0.358,-0.418 z"
         fill="#37b3ba"
         transform="matrix(1,0,0,1.00359,1499.73,-352.868)"
         id="path15" /><path
         d="m -256.444,416.593 c 0.147,-0.23 0.292,-0.461 0.432,-0.695 0.125,-0.211 0.253,-0.434 0.389,-0.681 l 15.187,0.967 -0.121,1.901 -16.192,-1.031 c 0.102,-0.149 0.204,-0.304 0.305,-0.461 z"
         fill="#37b3ba"
         transform="matrix(1,0,0,1.00359,1499.73,-352.868)"
         id="path16" /><path
         d="m -255.003,414.013 c 0.122,-0.253 0.239,-0.508 0.352,-0.766 0.106,-0.242 0.212,-0.496 0.313,-0.753 l 15.486,-1.724 0.211,1.893 -16.607,1.849 c 0.081,-0.16 0.162,-0.325 0.245,-0.499 z"
         fill="#37b3ba"
         transform="matrix(1,0,0,1.00359,1499.73,-352.868)"
         id="path17" /><path
         d="m -252.718,405.261 0.003,-0.031 c 0.016,-0.264 0.029,-0.552 0.038,-0.879 0.008,-0.318 0.01,-0.63 0.008,-0.928 l 12.735,-9.373 1.13,1.534 -13.96,10.275 c 0.018,-0.197 0.033,-0.396 0.046,-0.598 z"
         fill="#37b3ba"
         transform="matrix(1,0,0,1.00359,1499.73,-352.868)"
         id="path18" /><path
         d="m -253.201,398.675 c -0.064,-0.301 -0.14,-0.614 -0.229,-0.958 -0.082,-0.316 -0.173,-0.637 -0.27,-0.955 l 8.368,-12.572 1.585,1.055 -9.333,14.025 c -0.038,-0.201 -0.079,-0.399 -0.121,-0.595 z"
         fill="#37b3ba"
         transform="matrix(1,0,0,1.00359,1499.73,-352.868)"
         id="path19" /><path
         d="m -255.889,391.748 c -0.164,-0.281 -0.343,-0.573 -0.532,-0.868 -0.183,-0.286 -0.376,-0.573 -0.575,-0.855 l 3.218,-13.254 1.851,0.45 -3.657,15.068 c -0.101,-0.185 -0.203,-0.365 -0.305,-0.541 z"
         fill="#37b3ba"
         transform="matrix(1,0,0,1.00359,1499.73,-352.868)"
         id="path20" /><path
         d="m -265.188,382.74 c -0.283,-0.153 -0.581,-0.305 -0.885,-0.454 -0.301,-0.146 -0.606,-0.287 -0.911,-0.419 l -2.875,-9.798 1.827,-0.536 3.376,11.504 c -0.178,-0.103 -0.356,-0.202 -0.532,-0.297 z"
         fill="#37b3ba"
         transform="matrix(1,0,0,1.00359,1499.73,-352.868)"
         id="path21" /><path
         d="m -269.658,380.888 c -0.285,-0.085 -0.59,-0.169 -0.932,-0.256 -0.312,-0.078 -0.63,-0.152 -0.946,-0.219 l -3.954,-7.979 1.707,-0.846 4.697,9.48 c -0.19,-0.063 -0.381,-0.123 -0.572,-0.18 z"
         fill="#37b3ba"
         transform="matrix(1,0,0,1.00359,1499.73,-352.868)"
         id="path22" /><path
         d="m -274.587,379.971 -0.076,-0.006 c -0.104,-0.009 -0.207,-0.017 -0.312,-0.024 -0.184,-0.012 -0.367,-0.021 -0.55,-0.028 -0.302,-0.012 -0.617,-0.018 -0.938,-0.019 l -4.508,-6.125 1.534,-1.129 5.435,7.385 c -0.194,-0.021 -0.389,-0.038 -0.585,-0.054 z"
         fill="#37b3ba"
         transform="matrix(1,0,0,1.00359,1499.73,-352.868)"
         id="path23" /><path
         d="m -274.732,427.474 c 0.221,-0.016 0.439,-0.034 0.657,-0.056 l 2.749,9.37 -1.827,0.537 -2.873,-9.792 c 0.185,-0.003 0.37,-0.008 0.555,-0.016 0.247,-0.011 0.494,-0.025 0.739,-0.043 z"
         fill="#37b3ba"
         transform="matrix(1,0,0,1.00359,1499.73,-352.868)"
         id="path24" /><path
         d="m -271.852,427.087 c 0.244,-0.048 0.487,-0.101 0.728,-0.156 0.216,-0.05 0.433,-0.102 0.648,-0.158 l 4.781,9.651 -1.707,0.846 -4.994,-10.082 c 0.178,-0.031 0.36,-0.065 0.544,-0.101 z"
         fill="#37b3ba"
         transform="matrix(1,0,0,1.00359,1499.73,-352.868)"
         id="path25" /><path
         d="m -250.354,429.688 -1.055,1.585 -11.746,-7.817 c 0.144,-0.098 0.293,-0.201 0.45,-0.313 0.209,-0.149 0.417,-0.299 0.621,-0.454 0.176,-0.133 0.359,-0.278 0.557,-0.438 z"
         fill="#37b3ba"
         transform="matrix(1,0,0,1.00359,1499.73,-352.868)"
         id="path26" /><path
         d="m -262.151,384.69 c -0.272,-0.205 -0.551,-0.406 -0.83,-0.599 l -1.27,-11.403 1.893,-0.211 1.475,13.241 c -0.157,-0.135 -0.314,-0.269 -0.472,-0.399 -0.256,-0.212 -0.524,-0.424 -0.796,-0.629 z"
         fill="#37b3ba"
         transform="matrix(1,0,0,1.00359,1499.73,-352.868)"
         id="path27" /><path
         d="m -282.493,426.772 c 0.21,0.055 0.421,0.106 0.632,0.155 l -0.488,7.658 -1.901,-0.121 0.513,-8.051 c 0.177,0.056 0.354,0.111 0.534,0.163 0.235,0.069 0.472,0.134 0.71,0.196 z"
         fill="#37b3ba"
         transform="matrix(1,0,0,1.00359,1499.73,-352.868)"
         id="path28" /><path
         d="m -278.551,427.448 c 0.182,0.015 0.363,0.03 0.547,0.042 0.034,0.002 0.069,0.004 0.104,0.005 l 0.965,8.674 -1.892,0.211 -1.011,-9.078 c 0.194,0.027 0.376,0.051 0.553,0.072 0.244,0.028 0.488,0.053 0.734,0.074 z"
         fill="#37b3ba"
         transform="matrix(1,0,0,1.00359,1499.73,-352.868)"
         id="path29" /><path
         d="m -258.925,387.624 c -0.231,-0.252 -0.47,-0.503 -0.715,-0.747 l 0.804,-12.606 1.901,0.121 -0.922,14.48 c -0.131,-0.164 -0.263,-0.326 -0.393,-0.481 -0.213,-0.253 -0.441,-0.511 -0.675,-0.767 z"
         fill="#37b3ba"
         transform="matrix(1,0,0,1.00359,1499.73,-352.868)"
         id="path30" /><path
         d="m -290.818,422.748 c 0.197,0.148 0.395,0.294 0.597,0.436 0.177,0.125 0.357,0.249 0.54,0.37 l -2.273,5.192 -1.744,-0.764 2.439,-5.573 c 0.145,0.114 0.293,0.227 0.441,0.339 z"
         fill="#37b3ba"
         transform="matrix(1,0,0,1.00359,1499.73,-352.868)"
         id="path31" /><path
         d="m -253.89,411.262 c 0.092,-0.274 0.179,-0.55 0.26,-0.827 0.081,-0.278 0.157,-0.553 0.224,-0.821 l 15.173,-4.452 0.536,1.827 -16.377,4.806 c 0.062,-0.171 0.123,-0.348 0.184,-0.533 z"
         fill="#37b3ba"
         transform="matrix(1,0,0,1.00359,1499.73,-352.868)"
         id="path32" /><path
         d="m -253.121,408.35 c 0.056,-0.282 0.109,-0.579 0.157,-0.883 0.05,-0.314 0.09,-0.604 0.123,-0.88 l 14.243,-7.056 0.847,1.707 -15.487,7.672 c 0.041,-0.183 0.08,-0.371 0.117,-0.56 z"
         fill="#37b3ba"
         transform="matrix(1,0,0,1.00359,1499.73,-352.868)"
         id="path33" /><path
         d="m -252.724,402.045 c -0.022,-0.326 -0.051,-0.648 -0.085,-0.955 -0.034,-0.31 -0.076,-0.63 -0.125,-0.955 l 10.732,-11.251 1.379,1.315 -11.868,12.442 c -0.009,-0.2 -0.02,-0.4 -0.033,-0.596 z"
         fill="#37b3ba"
         transform="matrix(1,0,0,1.00359,1499.73,-352.868)"
         id="path34" /><path
         d="m -254.23,395.217 c -0.122,-0.32 -0.25,-0.634 -0.378,-0.933 -0.133,-0.306 -0.275,-0.617 -0.423,-0.924 l 5.801,-13.249 1.745,0.764 -6.531,14.918 c -0.069,-0.192 -0.14,-0.385 -0.214,-0.576 z"
         fill="#37b3ba"
         transform="matrix(1,0,0,1.00359,1499.73,-352.868)"
         id="path35" /><path
         d="m -279.751,380.113 c -0.278,0.039 -0.572,0.085 -0.898,0.142 -0.302,0.054 -0.599,0.112 -0.885,0.174 l -4.603,-4.391 1.314,-1.379 5.644,5.383 c -0.192,0.022 -0.384,0.045 -0.572,0.071 z"
         fill="#37b3ba"
         transform="matrix(1,0,0,1.00359,1499.73,-352.868)"
         id="path36" /><path
         d="m -284.855,381.404 c -0.258,0.098 -0.525,0.205 -0.814,0.326 -0.272,0.113 -0.538,0.23 -0.792,0.347 l -4.37,-2.909 1.055,-1.585 5.454,3.629 c -0.181,0.062 -0.359,0.128 -0.533,0.192 z"
         fill="#37b3ba"
         transform="matrix(1,0,0,1.00359,1499.73,-352.868)"
         id="path37" /><path
         d="m -289.595,383.823 c -0.236,0.155 -0.47,0.316 -0.701,0.481 -0.221,0.157 -0.445,0.322 -0.666,0.491 l -3.948,-1.728 0.764,-1.746 5.021,2.199 c -0.162,0.102 -0.319,0.202 -0.47,0.303 z"
         fill="#37b3ba"
         transform="matrix(1,0,0,1.00359,1499.73,-352.868)"
         id="path38" /><path
         d="m -293.701,387.247 c -0.19,0.2 -0.379,0.4 -0.563,0.606 -0.166,0.186 -0.336,0.384 -0.518,0.602 l -3.467,-0.841 0.449,-1.852 4.487,1.089 c -0.129,0.128 -0.258,0.26 -0.388,0.396 z"
         fill="#37b3ba"
         transform="matrix(1,0,0,1.00359,1499.73,-352.868)"
         id="path39" /><path
         d="m -294.173,419.675 c 0.165,0.184 0.334,0.365 0.505,0.543 0.152,0.159 0.307,0.315 0.464,0.47 l -2.649,3.978 -1.585,-1.054 2.897,-4.353 c 0.121,0.14 0.243,0.279 0.368,0.416 z"
         fill="#37b3ba"
         transform="matrix(1,0,0,1.00359,1499.73,-352.868)"
         id="path40" /><path
         d="m -287.101,425.05 c 0.22,0.109 0.442,0.215 0.666,0.318 0.197,0.09 0.395,0.178 0.595,0.264 l -1.568,6.454 -1.851,-0.449 1.661,-6.842 c 0.174,0.092 0.337,0.176 0.497,0.255 z"
         fill="#37b3ba"
         transform="matrix(1,0,0,1.00359,1499.73,-352.868)"
         id="path41" /><path
         d="m -268.495,426.162 c 0.236,-0.084 0.47,-0.173 0.702,-0.264 0.211,-0.083 0.42,-0.168 0.628,-0.255 l 6.951,9.444 -1.534,1.129 -7.269,-9.876 c 0.177,-0.058 0.351,-0.118 0.522,-0.178 z"
         fill="#37b3ba"
         transform="matrix(1,0,0,1.00359,1499.73,-352.868)"
         id="path42" /><path
         d="m -265.438,424.823 c 0.223,-0.118 0.444,-0.24 0.664,-0.363 0.211,-0.12 0.407,-0.235 0.597,-0.349 l 9.129,8.708 -1.314,1.378 -9.568,-9.125 c 0.173,-0.084 0.335,-0.167 0.492,-0.249 z"
         fill="#37b3ba"
         transform="matrix(1,0,0,1.00359,1499.73,-352.868)"
         id="path43" /><path
         d="m -247.039,427.535 -13.662,-5.982 c 0.143,-0.126 0.278,-0.247 0.408,-0.368 0.191,-0.176 0.377,-0.358 0.563,-0.541 0.187,-0.185 0.356,-0.356 0.512,-0.521 l 12.943,5.667 z"
         fill="#37b3ba"
         transform="matrix(1,0,0,1.00359,1499.73,-352.868)"
         id="path44" /><path
         d="m -258.209,418.991 c 0.17,-0.205 0.338,-0.411 0.502,-0.62 0.152,-0.195 0.306,-0.397 0.456,-0.604 l 14.316,3.476 -0.45,1.852 -15.182,-3.686 c 0.121,-0.138 0.24,-0.277 0.358,-0.418 z"
         fill="#37b3ba"
         transform="matrix(1,0,0,1.00359,1499.73,-352.868)"
         id="path45" /><path
         d="m -256.444,416.593 c 0.147,-0.23 0.292,-0.461 0.432,-0.695 0.125,-0.211 0.253,-0.434 0.389,-0.681 l 15.187,0.967 -0.121,1.901 -16.192,-1.031 c 0.102,-0.149 0.204,-0.304 0.305,-0.461 z"
         fill="#37b3ba"
         transform="matrix(1,0,0,1.00359,1499.73,-352.868)"
         id="path46" /><path
         d="m -255.003,414.013 c 0.122,-0.253 0.239,-0.508 0.352,-0.766 0.106,-0.242 0.212,-0.496 0.313,-0.753 l 15.486,-1.724 0.211,1.893 -16.607,1.849 c 0.081,-0.16 0.162,-0.325 0.245,-0.499 z"
         fill="#37b3ba"
         transform="matrix(1,0,0,1.00359,1499.73,-352.868)"
         id="path47" /><path
         d="m -252.718,405.261 0.003,-0.031 c 0.016,-0.264 0.029,-0.552 0.038,-0.879 0.008,-0.318 0.01,-0.63 0.008,-0.928 l 12.735,-9.373 1.13,1.534 -13.96,10.275 c 0.018,-0.197 0.033,-0.396 0.046,-0.598 z"
         fill="#37b3ba"
         transform="matrix(1,0,0,1.00359,1499.73,-352.868)"
         id="path48" /><path
         d="m -253.201,398.675 c -0.064,-0.301 -0.14,-0.614 -0.229,-0.958 -0.082,-0.316 -0.173,-0.637 -0.27,-0.955 l 8.368,-12.572 1.585,1.055 -9.333,14.025 c -0.038,-0.201 -0.079,-0.399 -0.121,-0.595 z"
         fill="#37b3ba"
         transform="matrix(1,0,0,1.00359,1499.73,-352.868)"
         id="path49" /><path
         d="m -255.889,391.748 c -0.164,-0.281 -0.343,-0.573 -0.532,-0.868 -0.183,-0.286 -0.376,-0.573 -0.575,-0.855 l 3.218,-13.254 1.851,0.45 -3.657,15.068 c -0.101,-0.185 -0.203,-0.365 -0.305,-0.541 z"
         fill="#37b3ba"
         transform="matrix(1,0,0,1.00359,1499.73,-352.868)"
         id="path50" /><path
         d="m -265.188,382.74 c -0.283,-0.153 -0.581,-0.305 -0.885,-0.454 -0.301,-0.146 -0.606,-0.287 -0.911,-0.419 l -2.875,-9.798 1.827,-0.536 3.376,11.504 c -0.178,-0.103 -0.356,-0.202 -0.532,-0.297 z"
         fill="#37b3ba"
         transform="matrix(1,0,0,1.00359,1499.73,-352.868)"
         id="path51" /><path
         d="m -269.658,380.888 c -0.285,-0.085 -0.59,-0.169 -0.932,-0.256 -0.312,-0.078 -0.63,-0.152 -0.946,-0.219 l -3.954,-7.979 1.707,-0.846 4.697,9.48 c -0.19,-0.063 -0.381,-0.123 -0.572,-0.18 z"
         fill="#37b3ba"
         transform="matrix(1,0,0,1.00359,1499.73,-352.868)"
         id="path52" /><path
         d="m -274.587,379.971 -0.076,-0.006 c -0.104,-0.009 -0.207,-0.017 -0.312,-0.024 -0.184,-0.012 -0.367,-0.021 -0.55,-0.028 -0.302,-0.012 -0.617,-0.018 -0.938,-0.019 l -4.508,-6.125 1.534,-1.129 5.435,7.385 c -0.194,-0.021 -0.389,-0.038 -0.585,-0.054 z"
         fill="#37b3ba"
         transform="matrix(1,0,0,1.00359,1499.73,-352.868)"
         id="path53" /><path
         d="m -274.732,427.474 c 0.221,-0.016 0.439,-0.034 0.657,-0.056 l 2.749,9.37 -1.827,0.537 -2.873,-9.792 c 0.185,-0.003 0.37,-0.008 0.555,-0.016 0.247,-0.011 0.494,-0.025 0.739,-0.043 z"
         fill="#37b3ba"
         transform="matrix(1,0,0,1.00359,1499.73,-352.868)"
         id="path54" /><path
         d="m -271.852,427.087 c 0.244,-0.048 0.487,-0.101 0.728,-0.156 0.216,-0.05 0.433,-0.102 0.648,-0.158 l 4.781,9.651 -1.707,0.846 -4.994,-10.082 c 0.178,-0.031 0.36,-0.065 0.544,-0.101 z"
         fill="#37b3ba"
         transform="matrix(1,0,0,1.00359,1499.73,-352.868)"
         id="path55" /><path
         d="m -250.354,429.688 -1.055,1.585 -11.746,-7.817 c 0.144,-0.098 0.293,-0.201 0.45,-0.313 0.209,-0.149 0.417,-0.299 0.621,-0.454 0.176,-0.133 0.359,-0.278 0.557,-0.438 z"
         fill="#37b3ba"
         transform="matrix(1,0,0,1.00359,1499.73,-352.868)"
         id="path56" /><path
         d="m -262.151,384.69 c -0.272,-0.205 -0.551,-0.406 -0.83,-0.599 l -1.27,-11.403 1.893,-0.211 1.475,13.241 c -0.157,-0.135 -0.314,-0.269 -0.472,-0.399 -0.256,-0.212 -0.524,-0.424 -0.796,-0.629 z"
         fill="#37b3ba"
         transform="matrix(1,0,0,1.00359,1499.73,-352.868)"
         id="path57" /><path
         d="m -282.493,426.772 c 0.21,0.055 0.421,0.106 0.632,0.155 l -0.488,7.658 -1.901,-0.121 0.513,-8.051 c 0.177,0.056 0.354,0.111 0.534,0.163 0.235,0.069 0.472,0.134 0.71,0.196 z"
         fill="#37b3ba"
         transform="matrix(1,0,0,1.00359,1499.73,-352.868)"
         id="path58" /><path
         d="m -278.551,427.448 c 0.182,0.015 0.363,0.03 0.547,0.042 0.034,0.002 0.069,0.004 0.104,0.005 l 0.965,8.674 -1.892,0.211 -1.011,-9.078 c 0.194,0.027 0.376,0.051 0.553,0.072 0.244,0.028 0.488,0.053 0.734,0.074 z"
         fill="#37b3ba"
         transform="matrix(1,0,0,1.00359,1499.73,-352.868)"
         id="path59" /><path
         d="m -258.925,387.624 c -0.231,-0.252 -0.47,-0.503 -0.715,-0.747 l 0.804,-12.606 1.901,0.121 -0.922,14.48 c -0.131,-0.164 -0.263,-0.326 -0.393,-0.481 -0.213,-0.253 -0.441,-0.511 -0.675,-0.767 z"
         fill="#37b3ba"
         transform="matrix(1,0,0,1.00359,1499.73,-352.868)"
         id="path60" /></g></g></svg>
