<?xml version="1.0" encoding="UTF-8" standalone="no"?>
<svg
   width="140"
   height="66"
   xml:space="preserve"
   overflow="hidden"
   version="1.1"
   id="svg61"
   sodipodi:docname="Helico_logo_white.svg"
   inkscape:version="1.4 (86a8ad7, 2024-10-11)"
   xmlns:inkscape="http://www.inkscape.org/namespaces/inkscape"
   xmlns:sodipodi="http://sodipodi.sourceforge.net/DTD/sodipodi-0.dtd"
   xmlns="http://www.w3.org/2000/svg"
   xmlns:svg="http://www.w3.org/2000/svg"><sodipodi:namedview
     id="namedview61"
     pagecolor="#ffffff"
     bordercolor="#000000"
     borderopacity="0.25"
     inkscape:showpageshadow="2"
     inkscape:pageopacity="0.0"
     inkscape:pagecheckerboard="0"
     inkscape:deskcolor="#d1d1d1"
     inkscape:zoom="6.6285714"
     inkscape:cx="92.62931"
     inkscape:cy="34.24569"
     inkscape:window-width="3840"
     inkscape:window-height="2120"
     inkscape:window-x="-12"
     inkscape:window-y="-12"
     inkscape:window-maximized="1"
     inkscape:current-layer="svg61" /><defs
     id="defs1"><clipPath
       id="clip0"><rect
         x="1122"
         y="20"
         width="140"
         height="66"
         id="rect1" /></clipPath></defs><g
     clip-path="url(#clip0)"
     transform="translate(-1122 -20)"
     id="g61"
     style="fill:#ffffff;fill-opacity:1"><path
       d="M-290.818 422.748C-290.621 422.896-290.423 423.042-290.221 423.184-290.044 423.309-289.864 423.433-289.681 423.554L-291.954 428.746-293.698 427.982-291.259 422.409C-291.114 422.523-290.966 422.636-290.818 422.748Z"
       fill="#37B3BA"
       transform="matrix(1 0 0 1.00359 1499.73 -352.868)"
       id="path1"
       style="fill:#ffffff;fill-opacity:1" /><path
       d="M-253.89 411.262C-253.798 410.988-253.711 410.712-253.63 410.435-253.549 410.157-253.473 409.882-253.406 409.614L-238.233 405.162-237.697 406.989-254.074 411.795C-254.012 411.624-253.951 411.447-253.89 411.262Z"
       fill="#37B3BA"
       transform="matrix(1 0 0 1.00359 1499.73 -352.868)"
       id="path2"
       style="fill:#ffffff;fill-opacity:1" /><path
       d="M-253.121 408.35C-253.065 408.068-253.012 407.771-252.964 407.467-252.914 407.153-252.874 406.863-252.841 406.587L-238.598 399.531-237.751 401.238-253.238 408.91C-253.197 408.727-253.158 408.539-253.121 408.35Z"
       fill="#37B3BA"
       transform="matrix(1 0 0 1.00359 1499.73 -352.868)"
       id="path3"
       style="fill:#ffffff;fill-opacity:1" /><path
       d="M-252.724 402.045C-252.746 401.719-252.775 401.397-252.809 401.09-252.843 400.78-252.885 400.46-252.934 400.135L-242.202 388.884-240.823 390.199-252.691 402.641C-252.7 402.441-252.711 402.241-252.724 402.045Z"
       fill="#37B3BA"
       transform="matrix(1 0 0 1.00359 1499.73 -352.868)"
       id="path4"
       style="fill:#ffffff;fill-opacity:1" /><path
       d="M-254.23 395.217C-254.352 394.897-254.48 394.583-254.608 394.284-254.741 393.978-254.883 393.667-255.031 393.36L-249.23 380.111-247.485 380.875-254.016 395.793C-254.085 395.601-254.156 395.408-254.23 395.217Z"
       fill="#37B3BA"
       transform="matrix(1 0 0 1.00359 1499.73 -352.868)"
       id="path5"
       style="fill:#ffffff;fill-opacity:1" /><path
       d="M-279.751 380.113C-280.029 380.152-280.323 380.198-280.649 380.255-280.951 380.309-281.248 380.367-281.534 380.429L-286.137 376.038-284.823 374.659-279.179 380.042C-279.371 380.064-279.563 380.087-279.751 380.113Z"
       fill="#37B3BA"
       transform="matrix(1 0 0 1.00359 1499.73 -352.868)"
       id="path6"
       style="fill:#ffffff;fill-opacity:1" /><path
       d="M-284.855 381.404C-285.113 381.502-285.38 381.609-285.669 381.73-285.941 381.843-286.207 381.96-286.461 382.077L-290.831 379.168-289.776 377.583-284.322 381.212C-284.503 381.274-284.681 381.34-284.855 381.404Z"
       fill="#37B3BA"
       transform="matrix(1 0 0 1.00359 1499.73 -352.868)"
       id="path7"
       style="fill:#ffffff;fill-opacity:1" /><path
       d="M-289.595 383.823C-289.831 383.978-290.065 384.139-290.296 384.304-290.517 384.461-290.741 384.626-290.962 384.795L-294.91 383.067-294.146 381.321-289.125 383.52C-289.287 383.622-289.444 383.722-289.595 383.823Z"
       fill="#37B3BA"
       transform="matrix(1 0 0 1.00359 1499.73 -352.868)"
       id="path8"
       style="fill:#ffffff;fill-opacity:1" /><path
       d="M-293.701 387.247C-293.891 387.447-294.08 387.647-294.264 387.853-294.43 388.039-294.6 388.237-294.782 388.455L-298.249 387.614-297.8 385.762-293.313 386.851C-293.442 386.979-293.571 387.111-293.701 387.247Z"
       fill="#37B3BA"
       transform="matrix(1 0 0 1.00359 1499.73 -352.868)"
       id="path9"
       style="fill:#ffffff;fill-opacity:1" /><path
       d="M-294.173 419.675C-294.008 419.859-293.839 420.04-293.668 420.218-293.516 420.377-293.361 420.533-293.204 420.688L-295.853 424.666-297.438 423.612-294.541 419.259C-294.42 419.399-294.298 419.538-294.173 419.675Z"
       fill="#37B3BA"
       transform="matrix(1 0 0 1.00359 1499.73 -352.868)"
       id="path10"
       style="fill:#ffffff;fill-opacity:1" /><path
       d="M-287.101 425.05C-286.881 425.159-286.659 425.265-286.435 425.368-286.238 425.458-286.04 425.546-285.84 425.632L-287.408 432.086-289.259 431.637-287.598 424.795C-287.424 424.887-287.261 424.971-287.101 425.05Z"
       fill="#37B3BA"
       transform="matrix(1 0 0 1.00359 1499.73 -352.868)"
       id="path11"
       style="fill:#ffffff;fill-opacity:1" /><path
       d="M-268.495 426.162C-268.259 426.078-268.025 425.989-267.793 425.898-267.582 425.815-267.373 425.73-267.165 425.643L-260.214 435.087-261.748 436.216-269.017 426.34C-268.84 426.282-268.666 426.222-268.495 426.162Z"
       fill="#37B3BA"
       transform="matrix(1 0 0 1.00359 1499.73 -352.868)"
       id="path12"
       style="fill:#ffffff;fill-opacity:1" /><path
       d="M-265.438 424.823C-265.215 424.705-264.994 424.583-264.774 424.46-264.563 424.34-264.367 424.225-264.177 424.111L-255.048 432.819-256.362 434.197-265.93 425.072C-265.757 424.988-265.595 424.905-265.438 424.823Z"
       fill="#37B3BA"
       transform="matrix(1 0 0 1.00359 1499.73 -352.868)"
       id="path13"
       style="fill:#ffffff;fill-opacity:1" /><path
       d="M-247.039 427.535-260.701 421.553C-260.558 421.427-260.423 421.306-260.293 421.185-260.102 421.009-259.916 420.827-259.73 420.644-259.543 420.459-259.374 420.288-259.218 420.123L-246.275 425.79Z"
       fill="#37B3BA"
       transform="matrix(1 0 0 1.00359 1499.73 -352.868)"
       id="path14"
       style="fill:#ffffff;fill-opacity:1" /><path
       d="M-258.209 418.991C-258.039 418.786-257.871 418.58-257.707 418.371-257.555 418.176-257.401 417.974-257.251 417.767L-242.935 421.243-243.385 423.095-258.567 419.409C-258.446 419.271-258.327 419.132-258.209 418.991Z"
       fill="#37B3BA"
       transform="matrix(1 0 0 1.00359 1499.73 -352.868)"
       id="path15"
       style="fill:#ffffff;fill-opacity:1" /><path
       d="M-256.444 416.593C-256.297 416.363-256.152 416.132-256.012 415.898-255.887 415.687-255.759 415.464-255.623 415.217L-240.436 416.184-240.557 418.085-256.749 417.054C-256.647 416.905-256.545 416.75-256.444 416.593Z"
       fill="#37B3BA"
       transform="matrix(1 0 0 1.00359 1499.73 -352.868)"
       id="path16"
       style="fill:#ffffff;fill-opacity:1" /><path
       d="M-255.003 414.013C-254.881 413.76-254.764 413.505-254.651 413.247-254.545 413.005-254.439 412.751-254.338 412.494L-238.852 410.77-238.641 412.663-255.248 414.512C-255.167 414.352-255.086 414.187-255.003 414.013Z"
       fill="#37B3BA"
       transform="matrix(1 0 0 1.00359 1499.73 -352.868)"
       id="path17"
       style="fill:#ffffff;fill-opacity:1" /><path
       d="M-252.718 405.261-252.715 405.23C-252.699 404.966-252.686 404.678-252.677 404.351-252.669 404.033-252.667 403.721-252.669 403.423L-239.934 394.05-238.804 395.584-252.764 405.859C-252.746 405.662-252.731 405.463-252.718 405.261Z"
       fill="#37B3BA"
       transform="matrix(1 0 0 1.00359 1499.73 -352.868)"
       id="path18"
       style="fill:#ffffff;fill-opacity:1" /><path
       d="M-253.201 398.675C-253.265 398.374-253.341 398.061-253.43 397.717-253.512 397.401-253.603 397.08-253.7 396.762L-245.332 384.19-243.747 385.245-253.08 399.27C-253.118 399.069-253.159 398.871-253.201 398.675Z"
       fill="#37B3BA"
       transform="matrix(1 0 0 1.00359 1499.73 -352.868)"
       id="path19"
       style="fill:#ffffff;fill-opacity:1" /><path
       d="M-255.889 391.748C-256.053 391.467-256.232 391.175-256.421 390.88-256.604 390.594-256.797 390.307-256.996 390.025L-253.778 376.771-251.927 377.221-255.584 392.289C-255.685 392.104-255.787 391.924-255.889 391.748Z"
       fill="#37B3BA"
       transform="matrix(1 0 0 1.00359 1499.73 -352.868)"
       id="path20"
       style="fill:#ffffff;fill-opacity:1" /><path
       d="M-265.188 382.74C-265.471 382.587-265.769 382.435-266.073 382.286-266.374 382.14-266.679 381.999-266.984 381.867L-269.859 372.069-268.032 371.533-264.656 383.037C-264.834 382.934-265.012 382.835-265.188 382.74Z"
       fill="#37B3BA"
       transform="matrix(1 0 0 1.00359 1499.73 -352.868)"
       id="path21"
       style="fill:#ffffff;fill-opacity:1" /><path
       d="M-269.658 380.888C-269.943 380.803-270.248 380.719-270.59 380.632-270.902 380.554-271.22 380.48-271.536 380.413L-275.49 372.434-273.783 371.588-269.086 381.068C-269.276 381.005-269.467 380.945-269.658 380.888Z"
       fill="#37B3BA"
       transform="matrix(1 0 0 1.00359 1499.73 -352.868)"
       id="path22"
       style="fill:#ffffff;fill-opacity:1" /><path
       d="M-274.587 379.971-274.663 379.965C-274.767 379.956-274.87 379.948-274.975 379.941-275.159 379.929-275.342 379.92-275.525 379.913-275.827 379.901-276.142 379.895-276.463 379.894L-280.971 373.769-279.437 372.64-274.002 380.025C-274.196 380.004-274.391 379.987-274.587 379.971Z"
       fill="#37B3BA"
       transform="matrix(1 0 0 1.00359 1499.73 -352.868)"
       id="path23"
       style="fill:#ffffff;fill-opacity:1" /><path
       d="M-274.732 427.474C-274.511 427.458-274.293 427.44-274.075 427.418L-271.326 436.788-273.153 437.325-276.026 427.533C-275.841 427.53-275.656 427.525-275.471 427.517-275.224 427.506-274.977 427.492-274.732 427.474Z"
       fill="#37B3BA"
       transform="matrix(1 0 0 1.00359 1499.73 -352.868)"
       id="path24"
       style="fill:#ffffff;fill-opacity:1" /><path
       d="M-271.852 427.087C-271.608 427.039-271.365 426.986-271.124 426.931-270.908 426.881-270.691 426.829-270.476 426.773L-265.695 436.424-267.402 437.27-272.396 427.188C-272.218 427.157-272.036 427.123-271.852 427.087Z"
       fill="#37B3BA"
       transform="matrix(1 0 0 1.00359 1499.73 -352.868)"
       id="path25"
       style="fill:#ffffff;fill-opacity:1" /><path
       d="M-250.354 429.688-251.409 431.273-263.155 423.456C-263.011 423.358-262.862 423.255-262.705 423.143-262.496 422.994-262.288 422.844-262.084 422.689-261.908 422.556-261.725 422.411-261.527 422.251Z"
       fill="#37B3BA"
       transform="matrix(1 0 0 1.00359 1499.73 -352.868)"
       id="path26"
       style="fill:#ffffff;fill-opacity:1" /><path
       d="M-262.151 384.69C-262.423 384.485-262.702 384.284-262.981 384.091L-264.251 372.688-262.358 372.477-260.883 385.718C-261.04 385.583-261.197 385.449-261.355 385.319-261.611 385.107-261.879 384.895-262.151 384.69Z"
       fill="#37B3BA"
       transform="matrix(1 0 0 1.00359 1499.73 -352.868)"
       id="path27"
       style="fill:#ffffff;fill-opacity:1" /><path
       d="M-282.493 426.772C-282.283 426.827-282.072 426.878-281.861 426.927L-282.349 434.585-284.25 434.464-283.737 426.413C-283.56 426.469-283.383 426.524-283.203 426.576-282.968 426.645-282.731 426.71-282.493 426.772Z"
       fill="#37B3BA"
       transform="matrix(1 0 0 1.00359 1499.73 -352.868)"
       id="path28"
       style="fill:#ffffff;fill-opacity:1" /><path
       d="M-278.551 427.448C-278.369 427.463-278.188 427.478-278.004 427.49-277.97 427.492-277.935 427.494-277.9 427.495L-276.935 436.169-278.827 436.38-279.838 427.302C-279.644 427.329-279.462 427.353-279.285 427.374-279.041 427.402-278.797 427.427-278.551 427.448Z"
       fill="#37B3BA"
       transform="matrix(1 0 0 1.00359 1499.73 -352.868)"
       id="path29"
       style="fill:#ffffff;fill-opacity:1" /><path
       d="M-258.925 387.624C-259.156 387.372-259.395 387.121-259.64 386.877L-258.836 374.271-256.935 374.392-257.857 388.872C-257.988 388.708-258.12 388.546-258.25 388.391-258.463 388.138-258.691 387.88-258.925 387.624Z"
       fill="#37B3BA"
       transform="matrix(1 0 0 1.00359 1499.73 -352.868)"
       id="path30"
       style="fill:#ffffff;fill-opacity:1" /><path
       d="M-290.818 422.748C-290.621 422.896-290.423 423.042-290.221 423.184-290.044 423.309-289.864 423.433-289.681 423.554L-291.954 428.746-293.698 427.982-291.259 422.409C-291.114 422.523-290.966 422.636-290.818 422.748Z"
       fill="#37B3BA"
       transform="matrix(1 0 0 1.00359 1499.73 -352.868)"
       id="path31"
       style="fill:#ffffff;fill-opacity:1" /><path
       d="M-253.89 411.262C-253.798 410.988-253.711 410.712-253.63 410.435-253.549 410.157-253.473 409.882-253.406 409.614L-238.233 405.162-237.697 406.989-254.074 411.795C-254.012 411.624-253.951 411.447-253.89 411.262Z"
       fill="#37B3BA"
       transform="matrix(1 0 0 1.00359 1499.73 -352.868)"
       id="path32"
       style="fill:#ffffff;fill-opacity:1" /><path
       d="M-253.121 408.35C-253.065 408.068-253.012 407.771-252.964 407.467-252.914 407.153-252.874 406.863-252.841 406.587L-238.598 399.531-237.751 401.238-253.238 408.91C-253.197 408.727-253.158 408.539-253.121 408.35Z"
       fill="#37B3BA"
       transform="matrix(1 0 0 1.00359 1499.73 -352.868)"
       id="path33"
       style="fill:#ffffff;fill-opacity:1" /><path
       d="M-252.724 402.045C-252.746 401.719-252.775 401.397-252.809 401.09-252.843 400.78-252.885 400.46-252.934 400.135L-242.202 388.884-240.823 390.199-252.691 402.641C-252.7 402.441-252.711 402.241-252.724 402.045Z"
       fill="#37B3BA"
       transform="matrix(1 0 0 1.00359 1499.73 -352.868)"
       id="path34"
       style="fill:#ffffff;fill-opacity:1" /><path
       d="M-254.23 395.217C-254.352 394.897-254.48 394.583-254.608 394.284-254.741 393.978-254.883 393.667-255.031 393.36L-249.23 380.111-247.485 380.875-254.016 395.793C-254.085 395.601-254.156 395.408-254.23 395.217Z"
       fill="#37B3BA"
       transform="matrix(1 0 0 1.00359 1499.73 -352.868)"
       id="path35"
       style="fill:#ffffff;fill-opacity:1" /><path
       d="M-279.751 380.113C-280.029 380.152-280.323 380.198-280.649 380.255-280.951 380.309-281.248 380.367-281.534 380.429L-286.137 376.038-284.823 374.659-279.179 380.042C-279.371 380.064-279.563 380.087-279.751 380.113Z"
       fill="#37B3BA"
       transform="matrix(1 0 0 1.00359 1499.73 -352.868)"
       id="path36"
       style="fill:#ffffff;fill-opacity:1" /><path
       d="M-284.855 381.404C-285.113 381.502-285.38 381.609-285.669 381.73-285.941 381.843-286.207 381.96-286.461 382.077L-290.831 379.168-289.776 377.583-284.322 381.212C-284.503 381.274-284.681 381.34-284.855 381.404Z"
       fill="#37B3BA"
       transform="matrix(1 0 0 1.00359 1499.73 -352.868)"
       id="path37"
       style="fill:#ffffff;fill-opacity:1" /><path
       d="M-289.595 383.823C-289.831 383.978-290.065 384.139-290.296 384.304-290.517 384.461-290.741 384.626-290.962 384.795L-294.91 383.067-294.146 381.321-289.125 383.52C-289.287 383.622-289.444 383.722-289.595 383.823Z"
       fill="#37B3BA"
       transform="matrix(1 0 0 1.00359 1499.73 -352.868)"
       id="path38"
       style="fill:#ffffff;fill-opacity:1" /><path
       d="M-293.701 387.247C-293.891 387.447-294.08 387.647-294.264 387.853-294.43 388.039-294.6 388.237-294.782 388.455L-298.249 387.614-297.8 385.762-293.313 386.851C-293.442 386.979-293.571 387.111-293.701 387.247Z"
       fill="#37B3BA"
       transform="matrix(1 0 0 1.00359 1499.73 -352.868)"
       id="path39"
       style="fill:#ffffff;fill-opacity:1" /><path
       d="M-294.173 419.675C-294.008 419.859-293.839 420.04-293.668 420.218-293.516 420.377-293.361 420.533-293.204 420.688L-295.853 424.666-297.438 423.612-294.541 419.259C-294.42 419.399-294.298 419.538-294.173 419.675Z"
       fill="#37B3BA"
       transform="matrix(1 0 0 1.00359 1499.73 -352.868)"
       id="path40"
       style="fill:#ffffff;fill-opacity:1" /><path
       d="M-287.101 425.05C-286.881 425.159-286.659 425.265-286.435 425.368-286.238 425.458-286.04 425.546-285.84 425.632L-287.408 432.086-289.259 431.637-287.598 424.795C-287.424 424.887-287.261 424.971-287.101 425.05Z"
       fill="#37B3BA"
       transform="matrix(1 0 0 1.00359 1499.73 -352.868)"
       id="path41"
       style="fill:#ffffff;fill-opacity:1" /><path
       d="M-268.495 426.162C-268.259 426.078-268.025 425.989-267.793 425.898-267.582 425.815-267.373 425.73-267.165 425.643L-260.214 435.087-261.748 436.216-269.017 426.34C-268.84 426.282-268.666 426.222-268.495 426.162Z"
       fill="#37B3BA"
       transform="matrix(1 0 0 1.00359 1499.73 -352.868)"
       id="path42"
       style="fill:#ffffff;fill-opacity:1" /><path
       d="M-265.438 424.823C-265.215 424.705-264.994 424.583-264.774 424.46-264.563 424.34-264.367 424.225-264.177 424.111L-255.048 432.819-256.362 434.197-265.93 425.072C-265.757 424.988-265.595 424.905-265.438 424.823Z"
       fill="#37B3BA"
       transform="matrix(1 0 0 1.00359 1499.73 -352.868)"
       id="path43"
       style="fill:#ffffff;fill-opacity:1" /><path
       d="M-247.039 427.535-260.701 421.553C-260.558 421.427-260.423 421.306-260.293 421.185-260.102 421.009-259.916 420.827-259.73 420.644-259.543 420.459-259.374 420.288-259.218 420.123L-246.275 425.79Z"
       fill="#37B3BA"
       transform="matrix(1 0 0 1.00359 1499.73 -352.868)"
       id="path44"
       style="fill:#ffffff;fill-opacity:1" /><path
       d="M-258.209 418.991C-258.039 418.786-257.871 418.58-257.707 418.371-257.555 418.176-257.401 417.974-257.251 417.767L-242.935 421.243-243.385 423.095-258.567 419.409C-258.446 419.271-258.327 419.132-258.209 418.991Z"
       fill="#37B3BA"
       transform="matrix(1 0 0 1.00359 1499.73 -352.868)"
       id="path45"
       style="fill:#ffffff;fill-opacity:1" /><path
       d="M-256.444 416.593C-256.297 416.363-256.152 416.132-256.012 415.898-255.887 415.687-255.759 415.464-255.623 415.217L-240.436 416.184-240.557 418.085-256.749 417.054C-256.647 416.905-256.545 416.75-256.444 416.593Z"
       fill="#37B3BA"
       transform="matrix(1 0 0 1.00359 1499.73 -352.868)"
       id="path46"
       style="fill:#ffffff;fill-opacity:1" /><path
       d="M-255.003 414.013C-254.881 413.76-254.764 413.505-254.651 413.247-254.545 413.005-254.439 412.751-254.338 412.494L-238.852 410.77-238.641 412.663-255.248 414.512C-255.167 414.352-255.086 414.187-255.003 414.013Z"
       fill="#37B3BA"
       transform="matrix(1 0 0 1.00359 1499.73 -352.868)"
       id="path47"
       style="fill:#ffffff;fill-opacity:1" /><path
       d="M-252.718 405.261-252.715 405.23C-252.699 404.966-252.686 404.678-252.677 404.351-252.669 404.033-252.667 403.721-252.669 403.423L-239.934 394.05-238.804 395.584-252.764 405.859C-252.746 405.662-252.731 405.463-252.718 405.261Z"
       fill="#37B3BA"
       transform="matrix(1 0 0 1.00359 1499.73 -352.868)"
       id="path48"
       style="fill:#ffffff;fill-opacity:1" /><path
       d="M-253.201 398.675C-253.265 398.374-253.341 398.061-253.43 397.717-253.512 397.401-253.603 397.08-253.7 396.762L-245.332 384.19-243.747 385.245-253.08 399.27C-253.118 399.069-253.159 398.871-253.201 398.675Z"
       fill="#37B3BA"
       transform="matrix(1 0 0 1.00359 1499.73 -352.868)"
       id="path49"
       style="fill:#ffffff;fill-opacity:1" /><path
       d="M-255.889 391.748C-256.053 391.467-256.232 391.175-256.421 390.88-256.604 390.594-256.797 390.307-256.996 390.025L-253.778 376.771-251.927 377.221-255.584 392.289C-255.685 392.104-255.787 391.924-255.889 391.748Z"
       fill="#37B3BA"
       transform="matrix(1 0 0 1.00359 1499.73 -352.868)"
       id="path50"
       style="fill:#ffffff;fill-opacity:1" /><path
       d="M-265.188 382.74C-265.471 382.587-265.769 382.435-266.073 382.286-266.374 382.14-266.679 381.999-266.984 381.867L-269.859 372.069-268.032 371.533-264.656 383.037C-264.834 382.934-265.012 382.835-265.188 382.74Z"
       fill="#37B3BA"
       transform="matrix(1 0 0 1.00359 1499.73 -352.868)"
       id="path51"
       style="fill:#ffffff;fill-opacity:1" /><path
       d="M-269.658 380.888C-269.943 380.803-270.248 380.719-270.59 380.632-270.902 380.554-271.22 380.48-271.536 380.413L-275.49 372.434-273.783 371.588-269.086 381.068C-269.276 381.005-269.467 380.945-269.658 380.888Z"
       fill="#37B3BA"
       transform="matrix(1 0 0 1.00359 1499.73 -352.868)"
       id="path52"
       style="fill:#ffffff;fill-opacity:1" /><path
       d="M-274.587 379.971-274.663 379.965C-274.767 379.956-274.87 379.948-274.975 379.941-275.159 379.929-275.342 379.92-275.525 379.913-275.827 379.901-276.142 379.895-276.463 379.894L-280.971 373.769-279.437 372.64-274.002 380.025C-274.196 380.004-274.391 379.987-274.587 379.971Z"
       fill="#37B3BA"
       transform="matrix(1 0 0 1.00359 1499.73 -352.868)"
       id="path53"
       style="fill:#ffffff;fill-opacity:1" /><path
       d="M-274.732 427.474C-274.511 427.458-274.293 427.44-274.075 427.418L-271.326 436.788-273.153 437.325-276.026 427.533C-275.841 427.53-275.656 427.525-275.471 427.517-275.224 427.506-274.977 427.492-274.732 427.474Z"
       fill="#37B3BA"
       transform="matrix(1 0 0 1.00359 1499.73 -352.868)"
       id="path54"
       style="fill:#ffffff;fill-opacity:1" /><path
       d="M-271.852 427.087C-271.608 427.039-271.365 426.986-271.124 426.931-270.908 426.881-270.691 426.829-270.476 426.773L-265.695 436.424-267.402 437.27-272.396 427.188C-272.218 427.157-272.036 427.123-271.852 427.087Z"
       fill="#37B3BA"
       transform="matrix(1 0 0 1.00359 1499.73 -352.868)"
       id="path55"
       style="fill:#ffffff;fill-opacity:1" /><path
       d="M-250.354 429.688-251.409 431.273-263.155 423.456C-263.011 423.358-262.862 423.255-262.705 423.143-262.496 422.994-262.288 422.844-262.084 422.689-261.908 422.556-261.725 422.411-261.527 422.251Z"
       fill="#37B3BA"
       transform="matrix(1 0 0 1.00359 1499.73 -352.868)"
       id="path56"
       style="fill:#ffffff;fill-opacity:1" /><path
       d="M-262.151 384.69C-262.423 384.485-262.702 384.284-262.981 384.091L-264.251 372.688-262.358 372.477-260.883 385.718C-261.04 385.583-261.197 385.449-261.355 385.319-261.611 385.107-261.879 384.895-262.151 384.69Z"
       fill="#37B3BA"
       transform="matrix(1 0 0 1.00359 1499.73 -352.868)"
       id="path57"
       style="fill:#ffffff;fill-opacity:1" /><path
       d="M-282.493 426.772C-282.283 426.827-282.072 426.878-281.861 426.927L-282.349 434.585-284.25 434.464-283.737 426.413C-283.56 426.469-283.383 426.524-283.203 426.576-282.968 426.645-282.731 426.71-282.493 426.772Z"
       fill="#37B3BA"
       transform="matrix(1 0 0 1.00359 1499.73 -352.868)"
       id="path58"
       style="fill:#ffffff;fill-opacity:1" /><path
       d="M-278.551 427.448C-278.369 427.463-278.188 427.478-278.004 427.49-277.97 427.492-277.935 427.494-277.9 427.495L-276.935 436.169-278.827 436.38-279.838 427.302C-279.644 427.329-279.462 427.353-279.285 427.374-279.041 427.402-278.797 427.427-278.551 427.448Z"
       fill="#37B3BA"
       transform="matrix(1 0 0 1.00359 1499.73 -352.868)"
       id="path59"
       style="fill:#ffffff;fill-opacity:1" /><path
       d="M-258.925 387.624C-259.156 387.372-259.395 387.121-259.64 386.877L-258.836 374.271-256.935 374.392-257.857 388.872C-257.988 388.708-258.12 388.546-258.25 388.391-258.463 388.138-258.691 387.88-258.925 387.624Z"
       fill="#37B3BA"
       transform="matrix(1 0 0 1.00359 1499.73 -352.868)"
       id="path60"
       style="fill:#ffffff;fill-opacity:1" /><text
       fill="#717171"
       font-family="Roboto,Roboto_MSFontService,sans-serif"
       font-weight="400"
       font-size="509.396"
       transform="matrix(0.0806916 0 0 0.0809816 1118.61 65)"
       id="text60"
       style="fill:#ffffff;fill-opacity:1">Helico</text><text
       fill="#A2A2A2"
       font-family="Roboto,Roboto_MSFontService,sans-serif"
       font-weight="400"
       font-size="133.333"
       transform="matrix(0.0806916 0 0 0.0809816 1129.98 78)"
       id="text61"
       style="fill:#ffffff;fill-opacity:1">Technologies</text></g></svg>
